<svg width="200" height="200" viewBox="0 0 200 200" fill="none" xmlns="http://www.w3.org/2000/svg">
  <!-- Gotinha feliz (azul) -->
  <g id="gotinha-sim">
    <!-- Corpo da gotinha -->
    <path d="M100 20C80 20 60 40 50 60C40 80 35 100 35 120C35 155 65 180 100 180C135 180 165 155 165 120C165 100 160 80 150 60C140 40 120 20 100 20Z"
          fill="#007BFF" stroke="#0056b3" stroke-width="4"/>

    <!-- Brilho -->
    <ellipse cx="80" cy="60" rx="20" ry="30" fill="#4DA6FF" opacity="0.6"/>
    <ellipse cx="75" cy="50" rx="10" ry="15" fill="#FFFFFF" opacity="0.8"/>

    <!-- Olhos felizes -->
    <circle cx="75" cy="95" r="8" fill="#FFFFFF"/>
    <circle cx="125" cy="95" r="8" fill="#FFFFFF"/>
    <circle cx="77" cy="93" r="5" fill="#0056b3"/>
    <circle cx="127" cy="93" r="5" fill="#0056b3"/>

    <!-- Brilho nos olhos -->
    <circle cx="79" cy="91" r="2" fill="#FFFFFF"/>
    <circle cx="129" cy="91" r="2" fill="#FFFFFF"/>

    <!-- Boca sorridente -->
    <path d="M70 120 Q100 145 130 120"
          stroke="#0056b3" stroke-width="6" stroke-linecap="round" fill="none"/>

    <!-- Bochechas rosadas -->
    <ellipse cx="55" cy="115" rx="12" ry="8" fill="#FF6B9D" opacity="0.4"/>
    <ellipse cx="145" cy="115" rx="12" ry="8" fill="#FF6B9D" opacity="0.4"/>
  </g>
</svg>
