<svg width="200" height="200" viewBox="0 0 200 200" fill="none" xmlns="http://www.w3.org/2000/svg">
  <!-- Gotinha triste (cinza) -->
  <g id="gotinha-nao">
    <!-- Corpo da gotinha -->
    <path d="M100 20C80 20 60 40 50 60C40 80 35 100 35 120C35 155 65 180 100 180C135 180 165 155 165 120C165 100 160 80 150 60C140 40 120 20 100 20Z"
          fill="#6c757d" stroke="#495057" stroke-width="4"/>

    <!-- Brilho -->
    <ellipse cx="80" cy="60" rx="20" ry="30" fill="#9BA5AE" opacity="0.5"/>
    <ellipse cx="75" cy="50" rx="10" ry="15" fill="#FFFFFF" opacity="0.4"/>

    <!-- Olhos tristes -->
    <ellipse cx="75" cy="95" rx="6" ry="8" fill="#495057"/>
    <ellipse cx="125" cy="95" rx="6" ry="8" fill="#495057"/>

    <!-- Sobrancelhas tristes -->
    <path d="M65 80 Q75 75 85 78"
          stroke="#495057" stroke-width="4" stroke-linecap="round" fill="none"/>
    <path d="M115 78 Q125 75 135 80"
          stroke="#495057" stroke-width="4" stroke-linecap="round" fill="none"/>

    <!-- Boca triste -->
    <path d="M70 135 Q100 125 130 135"
          stroke="#495057" stroke-width="6" stroke-linecap="round" fill="none"/>

    <!-- Lágrima -->
    <ellipse cx="140" cy="110" rx="5" ry="8" fill="#4DA6FF" opacity="0.7">
      <animate attributeName="cy" values="110;130;110" dur="2s" repeatCount="indefinite"/>
      <animate attributeName="opacity" values="0.7;0.3;0.7" dur="2s" repeatCount="indefinite"/>
    </ellipse>
  </g>
</svg>
